<svg id="Layer_1" data-name="Layer 1" xmlns="http://www.w3.org/2000/svg" xmlns:xlink="http://www.w3.org/1999/xlink" viewBox="0 0 174.21 36.09" width="174" height="37"><defs><style>.cls-1{fill:none;}.cls-2{fill:#3a3233;}.cls-3{fill:#3f9668;}.cls-4{clip-path:url(#clip-path);}.cls-5{fill:#409668;}.cls-6{fill:#409669;}.cls-7{fill:#419669;}.cls-8{fill:#419769;}.cls-9{fill:#429769;}.cls-10{fill:#42976a;}.cls-11{fill:#43976a;}.cls-12{fill:#43986a;}.cls-13{fill:#44986a;}.cls-14{fill:#44986b;}.cls-15{fill:#45996b;}.cls-16{fill:#46996c;}.cls-17{fill:#479a6c;}.cls-18{fill:#489a6d;}.cls-19{fill:#499b6d;}.cls-20{fill:#4a9b6e;}.cls-21{fill:#4a9c6e;}.cls-22{fill:#4b9c6f;}.cls-23{fill:#4c9d6f;}.cls-24{fill:#4d9d70;}.cls-25{fill:#4e9e70;}.cls-26{fill:#4f9e71;}.cls-27{fill:#509f71;}.cls-28{fill:#509f72;}.cls-29{fill:#51a072;}.cls-30{fill:#52a072;}.cls-31{fill:#53a073;}.cls-32{fill:#53a173;}.cls-33{fill:#54a174;}.cls-34{fill:#55a274;}.cls-35{fill:#56a275;}.cls-36{fill:#57a275;}.cls-37{fill:#57a375;}.cls-38{fill:#58a376;}.cls-39{fill:#59a476;}.cls-40{fill:#5aa477;}.cls-41{fill:#5aa577;}.cls-42{fill:#5ba578;}.cls-43{fill:#5ca678;}.cls-44{fill:#5da679;}.cls-45{fill:#5ea679;}.cls-46{fill:#5fa77a;}.cls-47{fill:#60a87b;}.cls-48{fill:#61a87b;}.cls-49{fill:#62a97c;}.cls-50{fill:#63a97c;}.cls-51{fill:#64aa7d;}.cls-52{fill:#65aa7d;}.cls-53{fill:#65ab7e;}.cls-54{fill:#66ab7e;}.cls-55{fill:#67ac7f;}.cls-56{fill:#68ac80;}.cls-57{fill:#69ad80;}.cls-58{fill:#6aad81;}.cls-59{fill:#6bae81;}.cls-60{fill:#6cae82;}.cls-61{fill:#6daf82;}.cls-62{fill:#6eaf83;}.cls-63{fill:#6fb084;}.cls-64{fill:#70b084;}.cls-65{fill:#70b185;}.cls-66{fill:#71b185;}.cls-67{fill:#72b286;}.cls-68{fill:#73b287;}.cls-69{fill:#74b387;}.cls-70{fill:#75b388;}.cls-71{fill:#76b489;}.cls-72{fill:#77b489;}.cls-73{fill:#78b58a;}.cls-74{fill:#79b68b;}.cls-75{fill:#7ab68b;}.cls-76{fill:#7bb78c;}.cls-77{fill:#7cb78d;}.cls-78{fill:#7db88d;}.cls-79{fill:#7eb88e;}.cls-80{fill:#7fb98f;}.cls-81{fill:#80b98f;}.cls-82{fill:#81ba90;}.cls-83{fill:#82ba91;}.cls-84{fill:#83bb92;}.cls-85{fill:#84bc92;}.cls-86{fill:#85bc93;}.cls-87{fill:#86bd94;}.cls-88{fill:#87bd94;}.cls-89{fill:#89be95;}.cls-90{fill:#8abe96;}.cls-91{fill:#8bbf97;}.cls-92{fill:#8cc097;}.cls-93{fill:#8dc098;}.cls-94{fill:#8ec199;}.cls-95{fill:#8fc19a;}.cls-96{fill:#90c29b;}.cls-97{fill:#91c39b;}.cls-98{fill:#92c39c;}.cls-99{fill:#93c49d;}.cls-100{fill:#94c49e;}.cls-101{fill:#95c59f;}.cls-102{fill:#96c69f;}.cls-103{fill:#98c6a0;}.cls-104{fill:#99c7a1;}.cls-105{fill:#9ac7a2;}.cls-106{fill:#9bc8a3;}.cls-107{fill:#9cc9a4;}.cls-108{fill:#9dc9a5;}.cls-109{fill:#9ecaa5;}.cls-110{fill:#9fcba6;}.cls-111{fill:#a1cba7;}.cls-112{fill:#a2cca8;}.cls-113{fill:#a3cca9;}.cls-114{fill:#a4cdaa;}.cls-115{fill:#a5ceab;}.cls-116{fill:#a6ceac;}.cls-117{fill:#a7cfad;}.cls-118{fill:#a9d0ae;}.cls-119{fill:#aad0af;}.cls-120{fill:#abd1b0;}.cls-121{fill:#acd2b0;}.cls-122{fill:#add2b1;}.cls-123{fill:#afd3b2;}.cls-124{fill:#b0d3b3;}.cls-125{fill:#b1d4b4;}.cls-126{fill:#b2d5b5;}.cls-127{fill:#b3d5b6;}.cls-128{fill:#b4d6b7;}.cls-129{fill:#b6d7b8;}.cls-130{fill:#b7d7b9;}.cls-131{fill:#b8d8ba;}.cls-132{fill:#b9d9bb;}.cls-133{fill:#bad9bd;}.cls-134{fill:#bcdabe;}.cls-135{fill:#bddbbf;}.cls-136{fill:#bedbc0;}.cls-137{fill:#bfdcc1;}.cls-138{fill:#c0ddc2;}.cls-139{fill:#c2ddc3;}.cls-140{fill:#c3dec4;}.cls-141{fill:#c4dfc5;}.cls-142{fill:#c5dfc6;}.cls-143{fill:#c7e0c7;}.cls-144{fill:#c8e1c8;}.cls-145{fill:#c9e2ca;}.cls-146{fill:#cae2cb;}.cls-147{fill:#cce3cc;}.cls-148{fill:#cde4cd;}.cls-149{fill:#cee4ce;}.cls-150{fill:#d0e5cf;}.cls-151{fill:#d1e6d0;}.cls-152{fill:#d2e6d2;}.cls-153{fill:#d3e7d3;}.cls-154{fill:#d5e8d4;}.cls-155{fill:#d6e8d5;}.cls-156{fill:#d7e9d6;}.cls-157{fill:#d8ead8;}.cls-158{fill:#daebd9;}.cls-159{fill:#dbebda;}.cls-160{fill:#dcecdb;}.cls-161{fill:#deeddd;}.cls-162{fill:#dfedde;}.cls-163{fill:#e0eedf;}.cls-164{fill:#e1efe1;}.cls-165{fill:#e3f0e2;}.cls-166{fill:#e4f0e3;}.cls-167{fill:#e5f1e4;}.cls-168{fill:#e7f2e6;}.cls-169{fill:#e8f2e7;}.cls-170{fill:#e9f3e8;}.cls-171{fill:#ebf4ea;}.cls-172{fill:#ecf5eb;}.cls-173{fill:#edf5ec;}.cls-174{fill:#eff6ee;}.cls-175{fill:#f0f7ef;}.cls-176{fill:#f1f8f1;}.cls-177{fill:#f3f8f2;}.cls-178{fill:#f4f9f3;}.cls-179{fill:#f6faf5;}.cls-180{fill:#f7fbf6;}.cls-181{fill:#f8fbf8;}.cls-182{fill:#fafcf9;}.cls-183{fill:#fbfdfb;}.cls-184{fill:#fcfdfc;}.cls-185{fill:#fefefe;}.cls-186{fill:#fff;}</style><clipPath id="clip-path" transform="translate(-2.16 -3.74)"><rect class="cls-1" x="36.26" y="36.42" width="79.51" height="1.06"/></clipPath></defs><title>logo</title><path class="cls-2" d="M14.91,14.71,11.25,17S5.57,9.59,2.16,7.64L42,3.74S12,8,9.63,9.43Z" transform="translate(-2.16 -3.74)"/><path class="cls-3" d="M44.43,3.74S31,7.34,21,26.69l-3.86-8.53L13.89,20.6S20,31.68,20.37,37.48C20.37,37.48,28.69,13.37,44.43,3.74Z" transform="translate(-2.16 -3.74)"/><path class="cls-2" d="M4.51,26S14.8,13.26,38.6,5.17A113.12,113.12,0,0,0,4.51,26Z" transform="translate(-2.16 -3.74)"/><path class="cls-2" d="M124.75,34.29a2.31,2.31,0,0,0-2.3-1.16,4,4,0,0,0-2.51.79,3.58,3.58,0,0,0-1.37,2.23,3.15,3.15,0,0,0-.1.78,2,2,0,0,0,.75,1.69,2.91,2.91,0,0,0,1.83.53A3.88,3.88,0,0,0,123.89,38l.5.37a4.68,4.68,0,0,1-3.46,1.45,3.22,3.22,0,0,1-2.6-1,2.56,2.56,0,0,1-.58-1.7,4.84,4.84,0,0,1,1.78-3.64,4.79,4.79,0,0,1,3.06-1,2.88,2.88,0,0,1,2.84,1.43Z" transform="translate(-2.16 -3.74)"/><path class="cls-2" d="M133.2,39.09a3.28,3.28,0,0,1-1.13.65,4.53,4.53,0,0,1-1.09.1,2.5,2.5,0,0,1-1.63-.5,1.81,1.81,0,0,1-.67-1.52,3.39,3.39,0,0,1,.08-.68,3.28,3.28,0,0,1,1.19-2,3.42,3.42,0,0,1,2.19-.73,2.56,2.56,0,0,1,1.65.5,1.83,1.83,0,0,1,.67,1.53,3.52,3.52,0,0,1-1.26,2.62Zm.25-3.45a1.3,1.3,0,0,0-.64-.49,2.85,2.85,0,0,0-.8-.08,2.57,2.57,0,0,0-1.67.56,2.76,2.76,0,0,0-1,2,1.39,1.39,0,0,0,.49,1.15,1.88,1.88,0,0,0,1.24.38,2.54,2.54,0,0,0,2.57-2.06,2.72,2.72,0,0,0,.06-.55A1.5,1.5,0,0,0,133.45,35.64Z" transform="translate(-2.16 -3.74)"/><path class="cls-2" d="M142.08,39.73l.12-.56a3,3,0,0,1-2,.67,2.42,2.42,0,0,1-1.31-.32,1.28,1.28,0,0,1-.59-1.14,2.25,2.25,0,0,1,.06-.49l.7-3.32h.7l-.71,3.31a1.73,1.73,0,0,0,0,.37c0,.63.44,1,1.32,1a2.15,2.15,0,0,0,1.46-.49,2.44,2.44,0,0,0,.76-1.36l.59-2.78h.7l-1.1,5.16Z" transform="translate(-2.16 -3.74)"/><path class="cls-2" d="M148.43,37.63,148,39.72h-.69l1.09-5.16h.7l-.15.7a3.46,3.46,0,0,1,2.42-.82l-.13.63C149.73,35.07,148.79,35.92,148.43,37.63Z" transform="translate(-2.16 -3.74)"/><path class="cls-2" d="M154.38,39.72l1.12-5.28h.7l-1.12,5.28Zm1.6-6c-.15,0-.24-.08-.28-.26l.17-.76a.49.49,0,0,1,.38-.27c.11,0,.22.08.32.24l-.17.82A.64.64,0,0,1,156,33.75Z" transform="translate(-2.16 -3.74)"/><path class="cls-2" d="M160.4,37.41a2.53,2.53,0,0,0,0,.38q0,1.41,1.68,1.41A2.44,2.44,0,0,0,164.27,38H165a3.26,3.26,0,0,1-3.08,1.85,2.51,2.51,0,0,1-1.59-.45,1.7,1.7,0,0,1-.64-1.46,3.27,3.27,0,0,1,.1-.78,3.34,3.34,0,0,1,1.17-2,3.29,3.29,0,0,1,2.15-.75,2.74,2.74,0,0,1,1.61.44,1.68,1.68,0,0,1,.68,1.45,2.83,2.83,0,0,1-.07.63l-.08.44ZM163,35.07a2.46,2.46,0,0,0-2.42,1.7h4a1.23,1.23,0,0,0,0-.27,1.28,1.28,0,0,0-.47-1.08A1.87,1.87,0,0,0,163,35.07Z" transform="translate(-2.16 -3.74)"/><path class="cls-2" d="M170,37.63l-.45,2.09h-.69l1.1-5.16h.69l-.15.7a3.48,3.48,0,0,1,2.42-.82l-.12.63C171.28,35.07,170.34,35.92,170,37.63Z" transform="translate(-2.16 -3.74)"/><path class="cls-2" d="M45.19,14.22a.56.56,0,0,0-.35.13.66.66,0,0,0-.21.29.08.08,0,0,1,0,0,.41.41,0,0,0,0,.1l0,.22c0,.09,0,.2-.08.34s-.08.31-.13.51-.11.45-.17.72a.6.6,0,0,0,.11.49.51.51,0,0,0,.43.2h7.15A3.79,3.79,0,0,1,55,18.8a4,4,0,0,1,.73,3.53.06.06,0,0,1,0,0,.58.58,0,0,1,0,.1s0,.11,0,.19L55.6,23a4.48,4.48,0,0,0-.12.47c0,.19-.1.42-.16.67s-.14.55-.22.88-.18.71-.27,1.13a4.37,4.37,0,0,1-1.53,2.35,4.13,4.13,0,0,1-2.66.91H36.26a.2.2,0,0,0,0-.05.53.53,0,0,0,0-.11,1.84,1.84,0,0,0,.06-.23l.1-.38c0-.16.08-.35.13-.58l.18-.8c.07-.31.16-.66.26-1.06s.2-.85.32-1.35H50a.58.58,0,0,0,.57-.43.08.08,0,0,1,0,0,.89.89,0,0,1,0-.11,1.91,1.91,0,0,1,0-.21c0-.09.05-.21.09-.34l.12-.52c0-.2.1-.44.16-.72A.46.46,0,0,0,51,22a.47.47,0,0,0-.42-.22H43.34a3.84,3.84,0,0,1-3.17-1.5,4,4,0,0,1-.73-3.55v0a.53.53,0,0,0,0-.11,1.24,1.24,0,0,0,.05-.19c0-.09,0-.19.08-.32s.07-.28.12-.47.1-.41.16-.67l.21-.89c.08-.33.18-.71.29-1.13q1.24-3.18,4.17-3.18H59a.2.2,0,0,0,0,0s0,.06,0,.11a2,2,0,0,1-.06.23c0,.1-.06.23-.1.38s-.09.33-.15.55-.12.49-.2.79-.17.65-.27,1.05-.22.84-.34,1.34H45.19Z" transform="translate(-2.16 -3.74)"/><path class="cls-2" d="M60.39,9.72h4.83v0a.11.11,0,0,0,0,.05l0,.09,0,.15-.06.21a2.06,2.06,0,0,0-.07.29l-.09.36q-.06.19-.12.45t-.15.57l-.17.67c0,.25-.12.52-.19.8s-.16.6-.25.94H67.5l-1,4.36H63v0s0,0,0,.06a.65.65,0,0,1,0,.11s0,.1,0,.17,0,.14-.05.24,0,.2-.08.33-.07.27-.11.43-.08.35-.13.55l-.16.69c-.06.24-.13.52-.2.82s-.15.64-.24,1l-.3,1.16a.93.93,0,0,0,.18.67.74.74,0,0,0,.63.3H65l-1,4.15h-3.3a3.71,3.71,0,0,1-3.14-1.54,4.26,4.26,0,0,1-.72-3.58Z" transform="translate(-2.16 -3.74)"/><path class="cls-2" d="M70.28,17.32a10.13,10.13,0,0,1,6.91-3h3.59a3.68,3.68,0,0,1,3,1.38,3.49,3.49,0,0,1,.7,3.16l-.21.76c0,.22-.1.4-.14.55s-.08.27-.1.36-.05.18-.06.23a.39.39,0,0,1,0,.11.17.17,0,0,0,0,.05,3.86,3.86,0,0,1-1.47,2.25,4.24,4.24,0,0,1-2.6.84H75.43a1.35,1.35,0,0,1-1.2-1,2.08,2.08,0,0,1,.28-1.74,2.74,2.74,0,0,1,2-1.16h2.8c.06-.23.11-.44.16-.61s.08-.31.11-.43.06-.21.08-.29,0-.14,0-.19a.51.51,0,0,0,0-.09,0,0,0,0,0,0,0h-3A4.43,4.43,0,0,0,74,19.3,4.53,4.53,0,0,0,72.35,22a3.41,3.41,0,0,0,.41,2.41,2.68,2.68,0,0,0,2.54,1.1h7.5c-.11.44-.21.84-.3,1.18s-.18.64-.25.9l-.18.68c0,.2-.1.36-.13.5s-.07.24-.09.32l0,.2a.33.33,0,0,0,0,.1.08.08,0,0,0,0,0H73.18c-2,0-3.5-.48-4.39-1.46a5.08,5.08,0,0,1-1.36-3.48A9.55,9.55,0,0,1,70.28,17.32Z" transform="translate(-2.16 -3.74)"/><path class="cls-2" d="M90.35,29.34q-3.7-.4-4.89-3.21c-.79-1.88-.59-4.2.62-7q3.08-5.14,9.57-4.79h6.86l-.22.78h0l-1.2,4.76-2.41,9.48h-4.8Zm6-9.43h0l.39-1.59h-2.3a4.64,4.64,0,0,0-3,1,4.8,4.8,0,0,0-1.55,2.3c-.52,2.36.29,3.53,2.45,3.5H95Z" transform="translate(-2.16 -3.74)"/><path class="cls-2" d="M117.18,24.06h-4.73l1.34-5.62h-3q-3.15,0-4.17,3.48a3.24,3.24,0,0,0,.39,2.42,2.71,2.71,0,0,0,2.44,1.12h7.38l-1,3.93h-8.39a5.64,5.64,0,0,1-4.25-1.49,5.48,5.48,0,0,1-1.43-3.5,10.31,10.31,0,0,1,2.86-7.16,9.73,9.73,0,0,1,6.73-3h3.51l1.2-4.53h4.73Z" transform="translate(-2.16 -3.74)"/><path class="cls-3" d="M121.45,13c.76-2.18,2.15-3.26,4.17-3.26h13.53l-1,4.49H126.45a.53.53,0,0,0-.33.14.65.65,0,0,0-.25.35l-.58,2.6h7.93l-1,4.49h-8l-1.7,7.59h-4.82Z" transform="translate(-2.16 -3.74)"/><path class="cls-3" d="M139.24,29.34q-3.69-.4-4.89-3.21t.62-7q3.09-5.14,9.58-4.79h6.85l-.22.78h0L150,19.91l-2.4,9.48h-4.81Zm6-9.43h0l.4-1.59h-2.31a4.61,4.61,0,0,0-3,1,4.75,4.75,0,0,0-1.56,2.3q-.78,3.54,2.45,3.5h2.68Z" transform="translate(-2.16 -3.74)"/><path class="cls-3" d="M168.14,14.36l1.12-4.64h4.83a0,0,0,0,1,0,0l0,.05a.46.46,0,0,0,0,.09l0,.15q0,.09-.06.21c0,.09-.05.18-.08.29s-.05.23-.08.36-.08.28-.12.45-.09.36-.15.57l-.17.67c-.06.25-.12.52-.2.8s-.15.6-.24.94h3.47l-1,4.36H171.9v0s0,0,0,.06a.65.65,0,0,1,0,.11s0,.1,0,.17,0,.14,0,.24,0,.2-.08.33-.07.27-.11.43-.08.35-.13.55l-.16.69c-.06.24-.13.52-.2.82s-.16.64-.24,1l-.3,1.16a.88.88,0,0,0,.18.67.74.74,0,0,0,.63.3h2.51l-1,4.15h-3.3a3.71,3.71,0,0,1-3.14-1.54,4.23,4.23,0,0,1-.72-3.58l1.45-6h-9.41q-.92,0-1.05.66a.62.62,0,0,0,.39.72,3,3,0,0,0,1.23.13l2-.06c1.83.06,3,.58,3.64,1.55a5.58,5.58,0,0,1,.47,3.9q-.9,4.38-6,4.21h-8.72l.83-4.08h7.74c.82.07,1.32-.18,1.49-.76,0-.64-.46-.93-1.43-.87h-2.17a4.41,4.41,0,0,1-3.46-1.45,4.47,4.47,0,0,1-.74-3.89q1.31-4.29,6.59-4h9.63Z" transform="translate(-2.16 -3.74)"/><g class="cls-4"><path class="cls-3" d="M36.26,36.42v0Z" transform="translate(-2.16 -3.74)"/><rect class="cls-3" x="34.11" y="32.67" width="0.41" height="1.06"/><rect class="cls-3" x="34.52" y="32.67" width="0.41" height="1.06"/><rect class="cls-5" x="34.93" y="32.67" width="0.41" height="1.06"/><rect class="cls-6" x="35.34" y="32.67" width="0.41" height="1.06"/><rect class="cls-6" x="35.76" y="32.67" width="0.41" height="1.06"/><rect class="cls-7" x="36.17" y="32.67" width="0.41" height="1.06"/><rect class="cls-8" x="36.58" y="32.67" width="0.41" height="1.06"/><rect class="cls-8" x="36.99" y="32.67" width="0.41" height="1.06"/><rect class="cls-9" x="37.4" y="32.67" width="0.41" height="1.06"/><rect class="cls-10" x="37.82" y="32.67" width="0.41" height="1.06"/><rect class="cls-11" x="38.23" y="32.67" width="0.41" height="1.06"/><rect class="cls-12" x="38.64" y="32.67" width="0.41" height="1.06"/><rect class="cls-13" x="39.05" y="32.67" width="0.41" height="1.06"/><rect class="cls-14" x="39.46" y="32.67" width="0.41" height="1.06"/><rect class="cls-15" x="39.88" y="32.67" width="0.41" height="1.06"/><rect class="cls-15" x="40.29" y="32.67" width="0.41" height="1.06"/><rect class="cls-16" x="40.7" y="32.67" width="0.41" height="1.06"/><rect class="cls-16" x="41.11" y="32.67" width="0.41" height="1.06"/><rect class="cls-17" x="41.52" y="32.67" width="0.41" height="1.06"/><rect class="cls-17" x="41.94" y="32.67" width="0.41" height="1.06"/><rect class="cls-18" x="42.35" y="32.67" width="0.41" height="1.06"/><rect class="cls-19" x="42.76" y="32.67" width="0.41" height="1.06"/><rect class="cls-19" x="43.17" y="32.67" width="0.41" height="1.06"/><rect class="cls-20" x="43.58" y="32.67" width="0.41" height="1.06"/><rect class="cls-21" x="44" y="32.67" width="0.41" height="1.06"/><rect class="cls-22" x="44.41" y="32.67" width="0.41" height="1.06"/><rect class="cls-23" x="44.82" y="32.67" width="0.41" height="1.06"/><rect class="cls-23" x="45.23" y="32.67" width="0.41" height="1.06"/><rect class="cls-24" x="45.64" y="32.67" width="0.41" height="1.06"/><rect class="cls-25" x="46.06" y="32.67" width="0.41" height="1.06"/><rect class="cls-25" x="46.47" y="32.67" width="0.41" height="1.06"/><rect class="cls-26" x="46.88" y="32.67" width="0.41" height="1.06"/><rect class="cls-27" x="47.29" y="32.67" width="0.41" height="1.06"/><rect class="cls-28" x="47.7" y="32.67" width="0.41" height="1.06"/><rect class="cls-29" x="48.12" y="32.67" width="0.41" height="1.06"/><rect class="cls-30" x="48.53" y="32.67" width="0.41" height="1.06"/><rect class="cls-31" x="48.94" y="32.67" width="0.41" height="1.06"/><rect class="cls-32" x="49.35" y="32.67" width="0.41" height="1.06"/><rect class="cls-33" x="49.76" y="32.67" width="0.41" height="1.06"/><rect class="cls-34" x="50.18" y="32.67" width="0.41" height="1.06"/><rect class="cls-35" x="50.59" y="32.67" width="0.41" height="1.06"/><rect class="cls-36" x="51" y="32.67" width="0.41" height="1.06"/><rect class="cls-37" x="51.41" y="32.67" width="0.41" height="1.06"/><rect class="cls-38" x="51.82" y="32.67" width="0.41" height="1.06"/><rect class="cls-39" x="52.24" y="32.67" width="0.41" height="1.06"/><rect class="cls-40" x="52.65" y="32.67" width="0.41" height="1.06"/><rect class="cls-41" x="53.06" y="32.67" width="0.41" height="1.06"/><rect class="cls-42" x="53.47" y="32.67" width="0.41" height="1.06"/><rect class="cls-43" x="53.88" y="32.67" width="0.41" height="1.06"/><rect class="cls-44" x="54.3" y="32.67" width="0.41" height="1.06"/><rect class="cls-45" x="54.71" y="32.67" width="0.41" height="1.06"/><rect class="cls-46" x="55.12" y="32.67" width="0.41" height="1.06"/><rect class="cls-46" x="55.53" y="32.67" width="0.41" height="1.06"/><rect class="cls-47" x="55.94" y="32.67" width="0.41" height="1.06"/><rect class="cls-48" x="56.36" y="32.67" width="0.41" height="1.06"/><rect class="cls-49" x="56.77" y="32.67" width="0.41" height="1.06"/><rect class="cls-50" x="57.18" y="32.67" width="0.41" height="1.06"/><rect class="cls-51" x="57.59" y="32.67" width="0.41" height="1.06"/><rect class="cls-52" x="58" y="32.67" width="0.41" height="1.06"/><rect class="cls-53" x="58.42" y="32.67" width="0.41" height="1.06"/><rect class="cls-54" x="58.83" y="32.67" width="0.41" height="1.06"/><rect class="cls-55" x="59.24" y="32.67" width="0.41" height="1.06"/><rect class="cls-56" x="59.65" y="32.67" width="0.41" height="1.06"/><rect class="cls-57" x="60.06" y="32.67" width="0.41" height="1.06"/><rect class="cls-58" x="60.48" y="32.67" width="0.41" height="1.06"/><rect class="cls-59" x="60.89" y="32.67" width="0.41" height="1.06"/><rect class="cls-60" x="61.3" y="32.67" width="0.41" height="1.06"/><rect class="cls-61" x="61.71" y="32.67" width="0.41" height="1.06"/><rect class="cls-62" x="62.12" y="32.67" width="0.41" height="1.06"/><rect class="cls-63" x="62.54" y="32.67" width="0.41" height="1.06"/><rect class="cls-64" x="62.95" y="32.67" width="0.41" height="1.06"/><rect class="cls-65" x="63.36" y="32.67" width="0.41" height="1.06"/><rect class="cls-66" x="63.77" y="32.67" width="0.41" height="1.06"/><rect class="cls-67" x="64.18" y="32.67" width="0.41" height="1.06"/><rect class="cls-68" x="64.6" y="32.67" width="0.41" height="1.06"/><rect class="cls-69" x="65.01" y="32.67" width="0.41" height="1.06"/><rect class="cls-70" x="65.42" y="32.67" width="0.41" height="1.06"/><rect class="cls-71" x="65.83" y="32.67" width="0.41" height="1.06"/><rect class="cls-72" x="66.24" y="32.67" width="0.41" height="1.06"/><rect class="cls-73" x="66.65" y="32.67" width="0.41" height="1.06"/><rect class="cls-74" x="67.07" y="32.67" width="0.41" height="1.06"/><rect class="cls-75" x="67.48" y="32.67" width="0.41" height="1.06"/><rect class="cls-76" x="67.89" y="32.67" width="0.41" height="1.06"/><rect class="cls-77" x="68.3" y="32.67" width="0.41" height="1.06"/><rect class="cls-78" x="68.71" y="32.67" width="0.41" height="1.06"/><rect class="cls-79" x="69.13" y="32.67" width="0.41" height="1.06"/><rect class="cls-80" x="69.54" y="32.67" width="0.41" height="1.06"/><rect class="cls-81" x="69.95" y="32.67" width="0.41" height="1.06"/><rect class="cls-82" x="70.36" y="32.67" width="0.41" height="1.06"/><rect class="cls-83" x="70.77" y="32.67" width="0.41" height="1.06"/><rect class="cls-84" x="71.19" y="32.67" width="0.41" height="1.06"/><rect class="cls-85" x="71.6" y="32.67" width="0.41" height="1.06"/><rect class="cls-86" x="72.01" y="32.67" width="0.41" height="1.06"/><rect class="cls-87" x="72.42" y="32.67" width="0.41" height="1.06"/><rect class="cls-88" x="72.83" y="32.67" width="0.41" height="1.06"/><rect class="cls-89" x="73.25" y="32.67" width="0.41" height="1.06"/><rect class="cls-90" x="73.66" y="32.67" width="0.41" height="1.06"/><rect class="cls-91" x="74.07" y="32.67" width="0.41" height="1.06"/><rect class="cls-92" x="74.48" y="32.67" width="0.41" height="1.06"/><rect class="cls-93" x="74.89" y="32.67" width="0.41" height="1.06"/><rect class="cls-94" x="75.31" y="32.67" width="0.41" height="1.06"/><rect class="cls-95" x="75.72" y="32.67" width="0.41" height="1.06"/><rect class="cls-96" x="76.13" y="32.67" width="0.41" height="1.06"/><rect class="cls-97" x="76.54" y="32.67" width="0.41" height="1.06"/><rect class="cls-98" x="76.95" y="32.67" width="0.41" height="1.06"/><rect class="cls-99" x="77.37" y="32.67" width="0.41" height="1.06"/><rect class="cls-100" x="77.78" y="32.67" width="0.41" height="1.06"/><rect class="cls-101" x="78.19" y="32.67" width="0.41" height="1.06"/><rect class="cls-102" x="78.6" y="32.67" width="0.41" height="1.06"/><rect class="cls-103" x="79.01" y="32.67" width="0.41" height="1.06"/><rect class="cls-104" x="79.43" y="32.67" width="0.41" height="1.06"/><rect class="cls-105" x="79.84" y="32.67" width="0.41" height="1.06"/><rect class="cls-106" x="80.25" y="32.67" width="0.41" height="1.06"/><rect class="cls-107" x="80.66" y="32.67" width="0.41" height="1.06"/><rect class="cls-108" x="81.07" y="32.67" width="0.41" height="1.06"/><rect class="cls-109" x="81.49" y="32.67" width="0.41" height="1.06"/><rect class="cls-110" x="81.9" y="32.67" width="0.41" height="1.06"/><rect class="cls-111" x="82.31" y="32.67" width="0.41" height="1.06"/><rect class="cls-112" x="82.72" y="32.67" width="0.41" height="1.06"/><rect class="cls-113" x="83.13" y="32.67" width="0.41" height="1.06"/><rect class="cls-114" x="83.55" y="32.67" width="0.41" height="1.06"/><rect class="cls-115" x="83.96" y="32.67" width="0.41" height="1.06"/><rect class="cls-116" x="84.37" y="32.67" width="0.41" height="1.06"/><rect class="cls-117" x="84.78" y="32.67" width="0.41" height="1.06"/><rect class="cls-118" x="85.19" y="32.67" width="0.41" height="1.06"/><rect class="cls-119" x="85.61" y="32.67" width="0.41" height="1.06"/><rect class="cls-120" x="86.02" y="32.67" width="0.41" height="1.06"/><rect class="cls-121" x="86.43" y="32.67" width="0.41" height="1.06"/><rect class="cls-122" x="86.84" y="32.67" width="0.41" height="1.06"/><rect class="cls-123" x="87.25" y="32.67" width="0.41" height="1.06"/><rect class="cls-124" x="87.67" y="32.67" width="0.41" height="1.06"/><rect class="cls-125" x="88.08" y="32.67" width="0.41" height="1.06"/><rect class="cls-126" x="88.49" y="32.67" width="0.41" height="1.06"/><rect class="cls-127" x="88.9" y="32.67" width="0.41" height="1.06"/><rect class="cls-128" x="89.31" y="32.67" width="0.41" height="1.06"/><rect class="cls-129" x="89.73" y="32.67" width="0.41" height="1.06"/><rect class="cls-130" x="90.14" y="32.67" width="0.41" height="1.06"/><rect class="cls-131" x="90.55" y="32.67" width="0.41" height="1.06"/><rect class="cls-132" x="90.96" y="32.67" width="0.41" height="1.06"/><rect class="cls-133" x="91.37" y="32.67" width="0.41" height="1.06"/><rect class="cls-134" x="91.79" y="32.67" width="0.41" height="1.06"/><rect class="cls-135" x="92.2" y="32.67" width="0.41" height="1.06"/><rect class="cls-136" x="92.61" y="32.67" width="0.41" height="1.06"/><rect class="cls-137" x="93.02" y="32.67" width="0.41" height="1.06"/><rect class="cls-138" x="93.43" y="32.67" width="0.41" height="1.06"/><rect class="cls-139" x="93.85" y="32.67" width="0.41" height="1.06"/><rect class="cls-140" x="94.26" y="32.67" width="0.41" height="1.06"/><rect class="cls-141" x="94.67" y="32.67" width="0.41" height="1.06"/><rect class="cls-142" x="95.08" y="32.67" width="0.41" height="1.06"/><rect class="cls-143" x="95.49" y="32.67" width="0.41" height="1.06"/><rect class="cls-144" x="95.91" y="32.67" width="0.41" height="1.06"/><rect class="cls-145" x="96.32" y="32.67" width="0.41" height="1.06"/><rect class="cls-146" x="96.73" y="32.67" width="0.41" height="1.06"/><rect class="cls-147" x="97.14" y="32.67" width="0.41" height="1.06"/><rect class="cls-148" x="97.55" y="32.67" width="0.41" height="1.06"/><rect class="cls-149" x="97.97" y="32.67" width="0.41" height="1.06"/><rect class="cls-150" x="98.38" y="32.67" width="0.41" height="1.06"/><rect class="cls-151" x="98.79" y="32.67" width="0.41" height="1.06"/><rect class="cls-152" x="99.2" y="32.67" width="0.41" height="1.06"/><rect class="cls-153" x="99.61" y="32.67" width="0.41" height="1.06"/><rect class="cls-154" x="100.02" y="32.67" width="0.41" height="1.06"/><rect class="cls-155" x="100.44" y="32.67" width="0.41" height="1.06"/><rect class="cls-156" x="100.85" y="32.67" width="0.41" height="1.06"/><rect class="cls-157" x="101.26" y="32.67" width="0.41" height="1.06"/><rect class="cls-158" x="101.67" y="32.67" width="0.41" height="1.06"/><rect class="cls-159" x="102.08" y="32.67" width="0.41" height="1.06"/><rect class="cls-160" x="102.5" y="32.67" width="0.41" height="1.06"/><rect class="cls-161" x="102.91" y="32.67" width="0.41" height="1.06"/><rect class="cls-162" x="103.32" y="32.67" width="0.41" height="1.06"/><rect class="cls-163" x="103.73" y="32.67" width="0.41" height="1.06"/><rect class="cls-164" x="104.14" y="32.67" width="0.41" height="1.06"/><rect class="cls-165" x="104.56" y="32.67" width="0.41" height="1.06"/><rect class="cls-166" x="104.97" y="32.67" width="0.41" height="1.06"/><rect class="cls-167" x="105.38" y="32.67" width="0.41" height="1.06"/><rect class="cls-168" x="105.79" y="32.67" width="0.41" height="1.06"/><rect class="cls-169" x="106.2" y="32.67" width="0.41" height="1.06"/><rect class="cls-170" x="106.62" y="32.67" width="0.41" height="1.06"/><rect class="cls-171" x="107.03" y="32.67" width="0.41" height="1.06"/><rect class="cls-172" x="107.44" y="32.67" width="0.41" height="1.06"/><rect class="cls-173" x="107.85" y="32.67" width="0.41" height="1.06"/><rect class="cls-174" x="108.26" y="32.67" width="0.41" height="1.06"/><rect class="cls-175" x="108.68" y="32.67" width="0.41" height="1.06"/><rect class="cls-176" x="109.09" y="32.67" width="0.41" height="1.06"/><rect class="cls-177" x="109.5" y="32.67" width="0.41" height="1.06"/><rect class="cls-178" x="109.91" y="32.67" width="0.41" height="1.06"/><rect class="cls-179" x="110.32" y="32.67" width="0.41" height="1.06"/><rect class="cls-180" x="110.74" y="32.67" width="0.41" height="1.06"/><rect class="cls-181" x="111.15" y="32.67" width="0.41" height="1.06"/><rect class="cls-182" x="111.56" y="32.67" width="0.41" height="1.06"/><rect class="cls-183" x="111.97" y="32.67" width="0.41" height="1.06"/><rect class="cls-184" x="112.38" y="32.67" width="0.41" height="1.06"/><rect class="cls-185" x="112.8" y="32.67" width="0.41" height="1.06"/><rect class="cls-186" x="113.21" y="32.67" width="0.41" height="1.06"/><path class="cls-186" d="M115.78,37.48v0Z" transform="translate(-2.16 -3.74)"/></g></svg>